<svg width="98" height="54" viewBox="0 0 98 54" fill="none" xmlns="http://www.w3.org/2000/svg">
<g clip-path="url(#clip0_257_90)">
<path d="M84.8 30.8999H12.8V33.6999H84.8V30.8999Z" fill="black"/>
<path d="M35.1999 18H30.3999V22.3H35.1999V18Z" fill="#FFBF00"/>
<path d="M41.6 18H36.8V22.3H41.6V18Z" fill="white"/>
<path d="M41.6 23.7H36.8V28H41.6V23.7Z" fill="#FFBF00"/>
<path d="M35.1999 23.7H30.3999V28H35.1999V23.7Z" fill="white"/>
<path d="M54.4 3.80005H52.8V12.3H54.4V3.80005Z" fill="black"/>
<path d="M51.2 2.3999H56V3.2999C56 3.5999 55.8 3.7999 55.5 3.7999H51.7C51.4 3.7999 51.2 3.5999 51.2 3.2999V2.3999Z" fill="black"/>
<path d="M54.4 3.80005H52.8V12.3H54.4V3.80005Z" fill="white"/>
<path d="M51.2 2.3999H56V3.2999C56 3.5999 55.8 3.7999 55.5 3.7999H51.7C51.4 3.7999 51.2 3.5999 51.2 3.2999V2.3999Z" fill="white"/>
<path d="M81.6001 30.8999V20.8999H50.4001V30.8999H12.8V33.6999H88V30.8999H81.6001Z" fill="white"/>
<path d="M8.7 43.2001H10.6V53.7001H9.2V45.3001L5.7 53.7001H4.3L0.9 45.3001V53.7001H-0.5V43.2001H1.4L5.1 52.0001L8.7 43.2001ZM17.9 39.6001H19.5L18 41.8001H17L17.9 39.6001ZM21.3 52.3001C20.4 53.3001 19.1 53.8001 17.6 53.8001C16 53.8001 14.8 53.3001 13.8 52.3001C12.8 51.3001 12.4 50.0001 12.4 48.4001C12.4 46.8001 12.9 45.5001 13.8 44.5001C14.7 43.5001 16 43.0001 17.6 43.0001C19.1 43.0001 20.4 43.5001 21.3 44.5001C22.2 45.5001 22.7 46.8001 22.7 48.4001C22.7 50.0001 22.2 51.3001 21.3 52.3001ZM17.5 52.5001C18.6 52.5001 19.5 52.1001 20.2 51.4001C20.9 50.6001 21.2 49.7001 21.2 48.5001C21.2 47.3001 20.9 46.3001 20.2 45.6001C19.5 44.9001 18.6 44.5001 17.5 44.5001C16.4 44.5001 15.5 44.9001 14.8 45.6001C14.1 46.3001 13.8 47.3001 13.8 48.5001C13.8 49.7001 14.1 50.7001 14.8 51.4001C15.5 52.1001 16.4 52.5001 17.5 52.5001ZM27.2 53.8001C26.2 53.8001 25.4 53.5001 24.7 52.8001C24 52.1001 23.6 51.3001 23.5 50.2001L24.8 49.8001C24.9 50.6001 25.1 51.2001 25.6 51.7001C26.1 52.2001 26.6 52.4001 27.3 52.4001C28 52.4001 28.6 52.2001 29 51.7001C29.4 51.3001 29.6 50.6001 29.6 49.8001V43.1001H31V49.8001C31 51.0001 30.7 52.0001 30 52.7001C29.2 53.5001 28.3 53.8001 27.2 53.8001ZM42.2 53.6001L40.1 49.5001H37.2V53.6001H35.8V43.2001H40.1C41.1 43.2001 41.9 43.5001 42.5 44.1001C43.1 44.7001 43.4 45.4001 43.4 46.4001C43.4 47.1001 43.2 47.7001 42.9 48.2001C42.6 48.7001 42.1 49.1001 41.4 49.3001L43.6 53.6001H42.2ZM37.2 44.5001V48.3001H40.1C40.7 48.3001 41.1 48.1001 41.5 47.8001C41.9 47.5001 42 47.0001 42 46.4001C42 45.8001 41.8 45.4001 41.5 45.1001C41.1 44.8001 40.7 44.6001 40.1 44.6001H37.2V44.5001ZM46.9 52.3001H52.7V53.6001H45.5V43.2001H52.5V44.5001H46.9V47.8001H51.6V49.0001H46.9V52.3001ZM63.6 43.2001H65.5V53.7001H64.1V45.3001L60.7 53.7001H59.3L55.9 45.3001V53.7001H54.5V43.2001H56.4L60 52.0001L63.6 43.2001ZM76.2 52.3001C75.3 53.3001 74 53.8001 72.5 53.8001C71 53.8001 69.7 53.3001 68.7 52.3001C67.8 51.3001 67.3 50.0001 67.3 48.4001C67.3 46.8001 67.8 45.5001 68.7 44.5001C69.7 43.5001 70.9 43.0001 72.5 43.0001C74.1 43.0001 75.3 43.5001 76.2 44.5001C77.2 45.5001 77.6 46.8001 77.6 48.4001C77.6 50.0001 77.1 51.3001 76.2 52.3001ZM72.4 52.5001C73.5 52.5001 74.4 52.1001 75.1 51.4001C75.8 50.6001 76.1 49.7001 76.1 48.5001C76.1 47.3001 75.8 46.3001 75.1 45.6001C74.4 44.9001 73.5 44.5001 72.4 44.5001C71.3 44.5001 70.4 44.9001 69.7 45.6001C69 46.3001 68.7 47.3001 68.7 48.5001C68.7 49.7001 69 50.7001 69.7 51.4001C70.4 52.1001 71.3 52.5001 72.4 52.5001ZM86.6 43.2001H88V53.7001H86.4L80.8 45.3001V53.7001H79.4V43.2001H81L86.6 51.6001V43.2001ZM98.1 43.2001V44.5001H94.5V53.6001H93V44.5001H89.4V43.2001H98.1Z" fill="white"/>
<path d="M68.1 8.1001H56V12.4001H54.4V8.1001H43.3L56.2 19.5001H81.1L68.1 8.1001Z" fill="white"/>
<path d="M53.6001 19.5H50.4001L34.9001 5.69995L36.3001 4.19995L53.6001 19.5Z" fill="#FFBF00"/>
<path d="M39.2001 0.699902C38.2001 0.0999016 36.8001 0.299902 36.0001 1.1999L35.9001 1.2999L35.7001 1.0999C35.6001 0.999899 35.4001 0.999899 35.2001 1.0999L31.7001 5.0999C31.6001 5.1999 31.6001 5.3999 31.7001 5.5999L32.0001 5.7999L31.6001 6.2999L31.5001 6.1999C31.4001 6.0999 31.1001 6.0999 31.0001 6.1999L30.8001 6.3999C30.7001 6.4999 30.7001 6.7999 30.8001 6.8999L32.1001 7.9999C32.2001 8.0999 32.5001 8.0999 32.6001 7.9999L32.8001 7.7999C32.9001 7.6999 32.9001 7.3999 32.8001 7.2999L32.7001 7.1999L33.1001 6.6999L33.4001 6.9999C33.5001 7.0999 33.7001 7.0999 33.9001 6.9999L37.4001 2.9999C37.5001 2.8999 37.5001 2.6999 37.4001 2.4999L37.0001 2.1999L37.8001 1.2999C38.1001 0.8999 38.6001 0.799902 39.2001 0.699902Z" fill="white"/>
<path d="M31.2999 9.7001L29.2999 8.1001L19.2 20.9001V33.7001H22.4V20.9001L31.2999 9.7001Z" fill="white"/>
</g>
<defs>
<clipPath id="clip0_257_90">
<rect width="98" height="54" fill="white"/>
</clipPath>
</defs>
</svg>
